<?xml version="1.0" encoding="utf-8"?>
<!-- Generator: Adobe Illustrator 22.0.0, SVG Export Plug-In . SVG Version: 6.00 Build 0)  -->
<svg version="1.1" id="ixband_mark_svg" xmlns="http://www.w3.org/2000/svg" xmlns:xlink="http://www.w3.org/1999/xlink" x="0px" y="0px"
	 viewBox="0 0 68.1 78" style="enable-background:new 0 0 68.1 78;" xml:space="preserve">
<style type="text/css">
	.ixband_mark_st0{fill:url(#ixband_mark_1_);}
	.ixband_mark_st1{fill:#7700B4;}
	.ixband_mark_st2{fill:url(#ixband_mark_2_);}
</style>
<linearGradient id="ixband_mark_1_" gradientUnits="userSpaceOnUse" x1="25.8022" y1="28.4232" x2="40.7388" y2="43.0329">
	<stop  offset="0" style="stop-color:#7700B4;stop-opacity:0.1"/>
	<stop  offset="0.6003" style="stop-color:#7700B4;stop-opacity:0.6668"/>
	<stop  offset="0.6356" style="stop-color:#7700B4;stop-opacity:0.7"/>
</linearGradient>
<polygon class="ixband_mark_st0" points="35.5,45.1 20.1,29.7 27.2,22.6 42.6,38 "/>
<path class="ixband_mark_st1" d="M22.5,52.9V32C28.6,29.8,33,23.9,33,17c0-8.8-7.2-16-16-16S1,8.2,1,17c0,7.3,4.9,13.4,11.5,15.3v44.7L40,49.6
	l27.5,27.5V7.9L22.5,52.9z M17,11c3.3,0,6,2.7,6,6s-2.7,6-6,6s-6-2.7-6-6S13.7,11,17,11z M57.5,52.9L47.1,42.5l10.4-10.4V52.9z"/>
<g>
	<linearGradient id="ixband_mark_2_" gradientUnits="userSpaceOnUse" x1="45.0756" y1="47.6671" x2="50.7422" y2="53.0838">
		<stop  offset="0" style="stop-color:#000000;stop-opacity:0.4"/>
		<stop  offset="1" style="stop-color:#000000;stop-opacity:0"/>
	</linearGradient>
	<polygon class="ixband_mark_st2" points="40,49.6 47.2,56.8 54.3,49.7 47.1,42.5 	"/>
</g>
</svg>
