<?xml version="1.0" encoding="utf-8"?>
<!-- Generator: Adobe Illustrator 22.0.0, SVG Export Plug-In . SVG Version: 6.00 Build 0)  -->
<svg version="1.1" id="ixband_white_svg" xmlns="http://www.w3.org/2000/svg" xmlns:xlink="http://www.w3.org/1999/xlink" x="0px" y="0px"
	 viewBox="0 0 304 78" style="enable-background:new 0 0 304 78;" xml:space="preserve">
<style type="text/css">
	.ixband_white_st0{fill:#FFFFFF;}
	.ixband_white_st1{fill:url(#ixband_white_1_);}
	.st2{fill:url(#ixband_white_2_);}
</style>
<g>
	<path class="ixband_white_st0" d="M101.8,15.5c-0.9,0-1.6-0.3-2.2-0.9c-0.6-0.6-1-1.4-1-2.4c0-0.9,0.3-1.7,1-2.2c0.7-0.6,1.4-0.9,2.2-0.9
		c0.9,0,1.6,0.3,2.3,0.8c0.7,0.6,1,1.3,1,2.3c0,0.9-0.3,1.7-1,2.3C103.5,15.2,102.7,15.5,101.8,15.5z M99.9,69.6V26.4h3.9v43.2
		C103.8,69.6,99.9,69.6,99.9,69.6z"/>
	<path class="ixband_white_st0" d="M127,48.4l14.1,21.2h-4.9l-11.4-18.2h-0.2l-1.5,2.4c-0.2,0.3-0.4,0.7-0.7,1.1l-9.5,14.7h-4.7l14.4-21.1
		l-14.2-22.1h4.6l9.6,15.5c1.3,2,2,3.2,2.2,3.7h0.2l2.1-3.5l10-15.7h4.5L127,48.4z"/>
	<path class="ixband_white_st0" d="M146.8,69.6V9.1h15.9c4.7,0,8.5,1.3,11.3,3.8c2.8,2.6,4.2,6,4.2,10.2c0,3.5-0.9,6.6-2.8,9.1
		c-1.9,2.6-4.5,4.4-7.8,5.5v0.2c4.2,0.4,7.5,1.9,9.9,4.5c2.4,2.6,3.6,5.9,3.6,9.9c0,5.1-1.6,9.3-4.9,12.5c-3.3,3.2-7.7,4.8-13.2,4.8
		C163,69.6,146.8,69.6,146.8,69.6z M151,13v23.4h8.4c4.4,0,7.9-1.1,10.5-3.4c2.6-2.3,4-5.3,4-9.2c0-7.2-4.3-10.9-12.9-10.9L151,13
		L151,13z M151,40.2v25.7h11.2c4.7,0,8.4-1.1,10.9-3.4s3.8-5.5,3.8-9.7c0-8.4-5.7-12.5-17-12.5H151V40.2z"/>
	<path class="ixband_white_st0" d="M214.5,69.6V61h-0.2c-1.4,2.9-3.4,5.3-6,7.1c-2.6,1.8-5.5,2.6-8.8,2.6c-4.1,0-7.4-1.2-9.8-3.5
		c-2.4-2.3-3.6-5.2-3.6-8.7c0-7.6,5-12.1,15-13.7l13.3-2c0-9.3-3.5-13.9-10.5-13.9c-4.7,0-9.4,1.9-13.9,5.7V30
		c1.6-1.3,3.8-2.4,6.5-3.3c2.7-0.9,5.3-1.3,7.8-1.3c4.5,0,7.9,1.4,10.3,4.1c2.4,2.8,3.6,6.8,3.6,12v28.1H214.5z M202.6,48.1
		c-4.5,0.7-7.7,1.7-9.6,3.1s-2.8,3.8-2.8,7.1c0,2.6,0.9,4.7,2.6,6.3c1.7,1.7,4.1,2.5,7.1,2.5c4.1,0,7.6-1.5,10.4-4.6
		c2.8-3.1,4.1-7,4.1-11.9v-4.2L202.6,48.1z"/>
	<path class="ixband_white_st0" d="M256.4,69.6V44.4c0-10.4-3.7-15.5-11.2-15.5c-4.2,0-7.6,1.5-10.3,4.6c-2.7,3-4,6.8-4,11.3v24.8H227V26.4h3.9
		v7.9h0.2c3.2-5.9,8.1-8.9,14.8-8.9c4.7,0,8.2,1.6,10.7,4.7c2.5,3.1,3.7,7.5,3.7,13.3v26.3L256.4,69.6L256.4,69.6z"/>
	<path class="ixband_white_st0" d="M300.2,69.6v-7.9H300c-1.4,2.7-3.5,4.9-6.3,6.5s-5.9,2.4-9.3,2.4c-5.3,0-9.6-1.9-13-5.8s-5-9.2-5-16.1
		c0-7,1.8-12.6,5.5-16.9s8.4-6.5,14.3-6.5c6.5,0,11.1,2.7,13.8,8h0.2V5.7h3.9v63.9C304.1,69.6,300.2,69.6,300.2,69.6z M300.2,43.3
		c0-4-1.3-7.4-3.8-10.2s-6-4.2-10.3-4.2c-4.5,0-8.3,1.7-11.2,5.2c-3,3.5-4.4,8.2-4.4,14.3c0,6,1.3,10.6,4,13.8s6.1,4.9,10.3,4.9
		c4.9,0,8.7-1.5,11.4-4.6s4-6.8,4-11.2V43.3z"/>
</g>
<linearGradient id="ixband_white_1_" gradientUnits="userSpaceOnUse" x1="25.802" y1="51.5766" x2="40.7386" y2="36.9669" gradientTransform="matrix(1 0 0 -1 0 80)">
	<stop  offset="0" style="stop-color:#FFFFFF;stop-opacity:0.1"/>
	<stop  offset="0.6" style="stop-color:#FFFFFF;stop-opacity:0.7"/>
</linearGradient>
<polygon class="ixband_white_st1" points="35.5,45.1 20.1,29.7 27.2,22.6 42.6,38 "/>
<path class="ixband_white_st0" d="M22.5,52.9V32C28.6,29.8,33,23.9,33,17c0-8.8-7.2-16-16-16S1,8.2,1,17c0,7.3,4.9,13.4,11.5,15.3V77L40,49.6
	l27.5,27.5V7.9L22.5,52.9z M17,11c3.3,0,6,2.7,6,6s-2.7,6-6,6s-6-2.7-6-6S13.7,11,17,11z M57.5,52.9L47.1,42.5l10.4-10.4V52.9z"/>
<g>
	
		<linearGradient id="ixband_white_2_" gradientUnits="userSpaceOnUse" x1="45.0755" y1="32.3329" x2="50.7422" y2="26.9162" gradientTransform="matrix(1 0 0 -1 0 80)">
		<stop  offset="0" style="stop-color:#000000;stop-opacity:0.4"/>
		<stop  offset="1" style="stop-color:#000000;stop-opacity:0"/>
	</linearGradient>
	<polygon class="st2" points="40,49.6 47.2,56.8 54.3,49.7 47.1,42.5 	"/>
</g>
</svg>
